<svg width="717" height="932" viewBox="0 0 717 932" fill="none" xmlns="http://www.w3.org/2000/svg">
<path d="M237.301 1125.46L-699.774 718.748L-232.069 -460.136C97.0305 -317.3 240.064 -254.986 577.279 -108.628C937.942 575.358 499.283 1000.13 237.301 1125.46Z" fill="#1D195C"/>
<path d="M242.982 1130.01L-9.96025 1063.04C742.637 927.943 754.984 341.802 633.847 13.4611C632.514 10.1499 631.162 6.83212 629.792 3.50723C614.807 -26.1567 566.515 -111.386 579.131 -105.91C598.251 -68.6559 615.088 -32.1819 629.792 3.50723C633.086 10.0267 634.771 13.8622 633.847 13.4611C884.056 634.999 486.362 1016.36 242.982 1130.01Z" fill="#3880FF"/>
<path d="M244.151 1132.17C822.293 650.783 639.413 196.815 479.599 -78.5888C546.172 -49.6947 539.072 -66.3826 745.446 23.1885C881.74 530.352 622.196 1077.6 475.387 1287.83C453.89 1278.5 398.931 1199.35 244.151 1132.17Z" fill="white" fill-opacity="0.13"/>
</svg>
