<svg width="113" height="113" viewBox="0 0 113 113" fill="none" xmlns="http://www.w3.org/2000/svg">
<path d="M56.5 113C87.7041 113 113 87.7041 113 56.5C113 25.2959 87.7041 0 56.5 0C25.2959 0 0 25.2959 0 56.5C0 87.7041 25.2959 113 56.5 113Z" fill="#3880FF"/>
<path d="M56.8671 81.9123C59.6457 77.0876 62.2911 72.5312 64.8881 67.9467C65.0393 67.5971 65.2999 67.3061 65.6306 67.1172C65.9614 66.9284 66.3444 66.852 66.7223 66.8994C68.5868 66.9781 70.4594 66.9236 72.5741 66.9236L56.855 94.1647L53.8282 88.9061C51.5359 84.937 49.2597 80.9578 46.9332 77.0008C46.7164 76.7212 46.5942 76.38 46.584 76.0263C46.5738 75.6727 46.6763 75.3249 46.8767 75.0334C54.6791 61.5931 62.4606 48.1407 70.2213 34.6762C70.3537 34.4325 70.5361 34.2196 70.7566 34.0513C70.9771 33.883 71.2306 33.7631 71.5006 33.6996C78.1595 33.6371 84.8003 33.6573 91.655 33.6573C91.4007 34.194 91.2514 34.5976 91.0274 34.9688C88.5798 39.2185 86.0998 43.4439 83.6905 47.7217C83.5313 48.0944 83.2558 48.4056 82.9052 48.6088C82.5547 48.8121 82.1478 48.8966 81.7453 48.8497C79.9191 48.7791 78.0869 48.8295 75.9722 48.8295L81.1197 39.8601C78.8234 39.8601 76.743 39.842 74.6626 39.8844C74.5141 39.9207 74.3749 39.9878 74.2539 40.0813C74.133 40.1748 74.033 40.2926 73.9604 40.4271C71.2221 45.1328 68.5121 49.8526 65.6871 54.7398H79.6103C78.3996 56.8404 77.3383 58.7352 76.18 60.5654C76.0166 60.8257 75.3729 60.862 74.9431 60.866C71.0849 60.8882 67.2268 60.9063 63.3686 60.866C62.9935 60.8179 62.6128 60.8895 62.2808 61.0707C61.9489 61.2519 61.6827 61.5334 61.5203 61.8749C59.0423 66.2658 56.5241 70.6338 53.9654 74.9789C53.7532 75.268 53.6403 75.6181 53.6435 75.9767C53.6468 76.3353 53.7661 76.6833 53.9836 76.9685C54.9623 78.5081 55.84 80.1083 56.8671 81.9123Z" fill="white"/>
<path d="M21.9724 33.7322H49.9197C48.7372 35.7905 47.7 37.6893 46.5438 39.5235C46.3784 39.7878 45.7245 39.8302 45.2968 39.8343C41.5778 39.8585 37.861 39.8464 34.142 39.8504C33.7042 39.8504 33.2663 39.8867 32.6226 39.917L42.9137 57.7428C43.3293 57.0527 43.6542 56.532 43.9589 56.0033C48.0612 48.9025 52.1736 41.8077 56.2396 34.6867C56.3911 34.3368 56.652 34.0454 56.983 33.8563C57.314 33.6671 57.6975 33.5903 58.0759 33.6374C59.9081 33.708 61.7443 33.6596 63.9276 33.6596L42.9419 70.0234L21.9724 33.7322Z" fill="white"/>
</svg>
