<svg width="56" height="56" viewBox="0 0 56 56" fill="none" xmlns="http://www.w3.org/2000/svg">
<path d="M28 56C43.464 56 56 43.464 56 28C56 12.536 43.464 0 28 0C12.536 0 0 12.536 0 28C0 43.464 12.536 56 28 56Z" fill="#3880FF"/>
<path d="M28.1819 40.5938C29.5589 38.2028 30.8699 35.9448 32.1569 33.6728C32.2318 33.4996 32.361 33.3553 32.5249 33.2618C32.6888 33.1682 32.8786 33.1303 33.0659 33.1538C33.9899 33.1928 34.9179 33.1658 35.9659 33.1658L28.1759 46.6658L26.6759 44.0598C25.5399 42.0928 24.4119 40.1208 23.2589 38.1598C23.1515 38.0212 23.0909 37.8521 23.0858 37.6769C23.0808 37.5016 23.1316 37.3293 23.2309 37.1848C27.0976 30.5241 30.9539 23.8575 34.7999 17.1848C34.8655 17.064 34.9559 16.9585 35.0652 16.8751C35.1744 16.7917 35.3001 16.7323 35.4339 16.7008C38.7339 16.6698 42.0249 16.6798 45.4219 16.6798C45.2959 16.9458 45.2219 17.1458 45.1109 17.3298C43.8979 19.4358 42.6689 21.5298 41.4749 23.6498C41.396 23.8345 41.2595 23.9887 41.0857 24.0895C40.912 24.1902 40.7104 24.2321 40.5109 24.2088C39.6059 24.1738 38.6979 24.1988 37.6499 24.1988L40.2009 19.7538C39.0629 19.7538 38.0319 19.7448 37.0009 19.7658C36.9273 19.7838 36.8583 19.8171 36.7984 19.8634C36.7384 19.9098 36.6889 19.9681 36.6529 20.0348C35.2959 22.3668 33.9529 24.7058 32.5529 27.1278H39.4529C38.8529 28.1688 38.3269 29.1078 37.7529 30.0148C37.6719 30.1438 37.3529 30.1618 37.1399 30.1638C35.2279 30.1748 33.3159 30.1838 31.4039 30.1638C31.218 30.1399 31.0293 30.1755 30.8648 30.2653C30.7003 30.3551 30.5684 30.4945 30.4879 30.6638C29.2599 32.8398 28.0119 35.0045 26.7439 37.1578C26.6387 37.3011 26.5828 37.4746 26.5844 37.6523C26.586 37.83 26.6451 38.0025 26.7529 38.1438C27.2379 38.9068 27.6729 39.6998 28.1819 40.5938Z" fill="white"/>
<path d="M10.8889 16.7169H24.7389C24.1529 17.7369 23.6389 18.6779 23.0659 19.5869C22.9839 19.7179 22.6599 19.7389 22.4479 19.7409C20.6049 19.7529 18.7629 19.7469 16.9199 19.7489C16.7029 19.7489 16.4859 19.7669 16.1669 19.7819L21.2669 28.6159C21.4729 28.2739 21.6339 28.0159 21.7849 27.7539C23.8179 24.2349 25.8559 20.7189 27.8709 17.1899C27.946 17.0165 28.0752 16.8721 28.2393 16.7784C28.4033 16.6846 28.5934 16.6466 28.7809 16.6699C29.6889 16.7049 30.5989 16.6809 31.6809 16.6809L21.2809 34.7019L10.8889 16.7169Z" fill="white"/>
</svg>
