<svg width="22" height="23" viewBox="0 0 22 23" fill="none" xmlns="http://www.w3.org/2000/svg">
<path fill-rule="evenodd" clip-rule="evenodd" d="M19.953 18.8481H13.6128C13.6128 19.5214 13.3456 20.1671 12.87 20.6432C12.3944 21.1193 11.7494 21.3867 11.0767 21.3867C10.4041 21.3867 9.75907 21.1193 9.28346 20.6432C8.80785 20.1671 8.54066 19.5214 8.54066 18.8481H2.20046C1.9404 18.8413 1.68933 18.7514 1.48398 18.5915C1.27863 18.4316 1.12979 18.2102 1.05922 17.9595C0.984382 17.7146 0.980393 17.4534 1.04772 17.2063C1.11505 16.9592 1.25093 16.7363 1.43963 16.5633C2.06769 16.0886 2.57761 15.4749 2.92956 14.7703C3.28151 14.0657 3.46596 13.2892 3.4685 12.5014V8.6934C3.4685 6.67351 4.27008 4.73635 5.6969 3.30807C7.12372 1.87979 9.05891 1.07739 11.0767 1.07739C13.0946 1.07739 15.0298 1.87979 16.4566 3.30807C17.8834 4.73635 18.685 6.67351 18.685 8.6934V12.5014C18.6875 13.2892 18.872 14.0657 19.2239 14.7703C19.5759 15.4749 20.0858 16.0886 20.7139 16.5633C20.9202 16.7231 21.0689 16.9458 21.1375 17.1977C21.2061 17.4496 21.191 17.717 21.0943 17.9595C21.0237 18.2102 20.8749 18.4316 20.6695 18.5915C20.4642 18.7514 20.2131 18.8413 19.953 18.8481V18.8481Z" stroke="white" stroke-width="1.52165"/>
</svg>
